# xmcd
#
# Track frame offsets: 
#        150
#        30736
#        52285
#        68706
#        84841
#        95995
#        109123
#        114223
#        129221
#        150667
#        170160
#        190345
#        206735
#        230066
#
# Disc length: 3380 seconds
#
# Revision: 0
# Processed by: cddbd v1.5.2PL0 Copyright (c) Steve Scherf et al.
# Submitted via: ExactAudioCopy v1.3
#
DISCID=c30d320e
DTITLE=Angry Johnny - Finally Gave Up Missin' You Today
DYEAR=2008
DGENRE=Country
TTITLE0=A Big Noise
TTITLE1=Haunt You
TTITLE2=Another Wreck On The Highway
TTITLE3=My Biggest Mistake
TTITLE4=I'm Gone
TTITLE5=Gave Up Missin' You Today
TTITLE6=I Wanna Hate You
TTITLE7=At My Window
TTITLE8=Empty
TTITLE9=Hammer And A Nail
TTITLE10=I'm Not Jesus
TTITLE11=Wish I Had A Car
TTITLE12=I'm The One
TTITLE13=Heard You Whisper
EXTD=
EXTT0=
EXTT1=
EXTT2=
EXTT3=
EXTT4=
EXTT5=
EXTT6=
EXTT7=
EXTT8=
EXTT9=
EXTT10=
EXTT11=
EXTT12=
EXTT13=
PLAYORDER=
